<svg height="512" viewBox="0 0 24 24" width="512" xmlns="http://www.w3.org/2000/svg"><path d="M12 22.25C6.348 22.25 1.75 17.652 1.75 12S6.348 1.75 12 1.75 22.25 6.348 22.25 12 17.652 22.25 12 22.25zm0-18.5c-4.549 0-8.25 3.701-8.25 8.25s3.701 8.25 8.25 8.25 8.25-3.701 8.25-8.25S16.549 3.75 12 3.75z" fill="#e53935" /><path d="M12 5.5a1 1 0 01-1-1V1a1 1 0 012 0v3.5a1 1 0 01-1 1zM23 13h-3.5a1 1 0 010-2H23a1 1 0 010 2zM12 24a1 1 0 01-1-1v-3.5a1 1 0 012 0V23a1 1 0 01-1 1zM4.5 13H1a1 1 0 010-2h3.5a1 1 0 010 2zM12 15c-1.654 0-3-1.346-3-3s1.346-3 3-3 3 1.346 3 3-1.346 3-3 3zm0-4c-.551 0-1 .449-1 1s.449 1 1 1 1-.449 1-1-.449-1-1-1z" fill="#e53935"/></svg>