<svg xmlns="http://www.w3.org/2000/svg" viewBox="0 0 512 512"><path d="M379.015 469.036c-117.63 67.914-268.042 27.611-335.956-90.019S15.447 110.973 133.078 43.06s268.042-27.61 335.956 90.019 27.611 268.043-90.019 335.957z" fill="#78d2fa"/><g fill="#a5dc69"><path d="M273.404 182.451c-1.77.415-5.2 1.286-6.683 2.476-1.852 1.485 1.042 3.416-.015 4.262-1.825 1.46-3.148 4.108-7.055 3.858-8.162-.521-20.706-11.079-28.165-15.07 12.024-12.374-6.999-14.228-14.413-13.608-9.601.803-26.216-.063-34.889 4.82-6.019 3.389-14.109 17.455-18.958 23.042-6.75 7.776-13.542 14.527-17.94 23.837-16.135 34.153 8.699 73.362 47.729 68.776 10.836-1.273 22.203-8.086 31.807.904 7.077 6.625 3.332 12.86 5.208 20.586 1.624 6.686 9.027 10.799 11.589 16.939 4.913 11.77 1.802 19.131-1.705 29.987-4.602 14.245 7.299 31.158 11.931 44.905 2.332 6.922 9.129 26.306 15.802 29.339 10.492 4.77 26.937-9.535 33.202-17.229 4.898-6.015 3.299-12.125 6.589-17.757 3.561-6.095 8.067-7.925 10.562-15.783 2.689-8.47 5.483-10.577 11.162-16.758 9.143-9.948 7.723-15.765 4.068-27.561-7.595-24.506 19.992-35.962 32.418-53.951 12.976-18.785-12.106-12.523-21.936-18.948-10.107-6.606-14.524-19.161-19.394-29.569-4.872-10.409-8.903-26.051-16.97-34.601-6.215-6.583-25.119-9.637-33.944-12.896zM400.356 346.844l-11.762 39.642c-2.741 9.238-12.432 39.458-26.028 20.101-5.168-7.356-.965-16.995 1.918-23.764 3.637-8.54-1.278-12.84 1.258-20.925 2.908-9.267 14.872-9.584 20.533-16.102 3.948-4.544 6.383-11.769 9.268-17.089 1.606 6.047 3.21 12.091 4.813 18.137z"/><path d="M469.034 133.079C426.674 59.71 352.218 16.429 273.641 10.721l-32.162 40.344-68.931 24.166-18.492 44.828 28.525 39.959 3.032-8.448a35.506 35.506 0 0133.419-23.512h47.013l54.04 18.99 18.613 17.768v11.286l25.877 49.567 7.535-2.779a119.935 119.935 0 0043.311-27.721l-6.247-9.372c-1.987-2.98.15-6.971 3.731-6.971h15.08c4.416 0 8.61 1.934 11.478 5.292l12.319 14.423a15.103 15.103 0 012.709 4.646l13.594 37.383 6.471-6.471c4.08-4.081 6.146-9.64 6.242-15.41a16.63 16.63 0 015.559-12.134l4.956-4.42a16.69 16.69 0 014.116-2.697c-5.387-22.735-14.112-45.084-26.395-66.359zM101.107 142.686l11.763-12.605a32.133 32.133 0 006.217-34.165c-5.064-12.29-16.167-20.258-28.457-21.906-43.44 39.398-70.449 92.367-78.219 148.474 9.184 8.028 18.795 16.622 18.74 17.379-.106 1.449 34.409-4.338 34.409-4.338L47.792 209.46l25.517-18.245 27.798-48.529zM125.025 387.739c11.088-3.602 17.156-15.511 13.554-26.598l-3.167-9.749a21.104 21.104 0 01.019-13.102c3.957-12.062-3.551-24.862-16.009-27.297l-24.853-4.857-45.399-34.517-37.533 12.193c3.686 32.595 13.973 64.981 31.421 95.204 16.138 27.951 36.94 51.525 60.846 70.33l11.184-58.379 9.937-3.228z"/></g><path d="M373.997 460.388l-.385.222c-4.776 2.771-6.401 8.89-3.631 13.667a9.996 9.996 0 0013.667 3.63l.385-.222c4.776-2.771 6.401-8.89 3.631-13.667-2.77-4.774-8.888-6.401-13.667-3.63z"/><path d="M477.694 128.08C443.512 68.875 388.321 26.526 322.287 8.832 256.255-8.862 187.283.219 128.078 34.4S26.524 123.773 8.831 189.806.218 324.812 34.399 384.016c30.661 53.107 79.393 93.468 137.219 113.646a256.812 256.812 0 0084.597 14.337c31.065 0 62.074-5.646 91.385-16.912 5.155-1.981 7.727-7.766 5.745-12.921-1.982-5.155-7.768-7.73-12.921-5.745-78.02 29.987-162.482 16.362-225.585-31.004l8.959-46.765 4.317-1.402c16.313-5.3 25.273-22.884 19.975-39.198l-3.168-9.749a11.042 11.042 0 01.01-6.895c2.779-8.472 1.786-17.741-2.725-25.433s-12.116-13.084-20.867-14.795l-22.57-4.41-43.548-33.11a10 10 0 00-9.142-1.551l-25.496 8.282a235.743 235.743 0 01-.035-27.303 57.936 57.936 0 012.064 1.992 10.044 10.044 0 001.841 2.253c2.082 1.896 3.968 2.756 7.928 2.756 3.639-.001 9.026-.726 17.921-2.04a1018.28 1018.28 0 0016.911-2.666 10 10 0 006.608-15.493l-12.261-17.984 17.562-12.558a10.007 10.007 0 002.861-3.164l27.223-47.525 10.973-11.758c11.213-12.018 14.413-29.601 8.151-44.797-3.694-8.963-10.146-16.425-18.216-21.454a236.657 236.657 0 0127.963-18.932c36.338-20.98 75.994-31.147 115.233-31.536l-17.856 22.399-66.215 23.214a9.994 9.994 0 00-5.935 5.623l-18.492 44.828a10 10 0 001.105 9.623l27.008 37.832c-3.868 3.529-7.633 8.669-12.13 15.051-1.972 2.799-3.834 5.442-5.121 6.924a406.453 406.453 0 01-3.349 3.798c-5.809 6.535-11.815 13.294-16.082 22.322-9.382 19.859-7.487 42.941 4.945 60.239 12.021 16.725 31.839 25.227 52.991 22.739 3.446-.404 6.659-1.199 9.768-1.969 8.573-2.121 11.289-2.333 14.039.241 1.338 1.253 1.461 1.49 1.434 5.738-.019 2.704-.04 6.068.892 9.909 1.493 6.145 5.353 10.392 8.452 13.804 1.541 1.695 3.135 3.449 3.626 4.626 3.119 7.474 1.761 11.613-1.215 20.683a382.87 382.87 0 00-.776 2.38c-4.521 13.995 1.781 27.877 7.341 40.124 1.806 3.977 3.511 7.731 4.628 11.049 8.991 26.679 15.731 32.789 21.14 35.249 2.833 1.288 5.765 1.853 8.727 1.852 14.415-.001 29.457-13.385 36.367-21.87 4.34-5.328 5.409-10.663 6.189-14.56.389-1.938.695-3.468 1.279-4.468.894-1.53 1.947-2.716 3.28-4.218 2.681-3.019 6.017-6.775 8.179-13.584 1.642-5.172 2.835-6.44 6.786-10.648a272.63 272.63 0 002.208-2.369c13.319-14.493 9.889-25.564 6.256-37.286-3.057-9.863 2.29-16.171 15.218-28.21 5.604-5.219 11.398-10.615 15.877-17.098 1.96-2.838 7.923-11.471 4.233-20.028-3.617-8.39-12.81-9.8-20.196-10.932-2.917-.448-7.325-1.124-8.728-2.041-6.187-4.045-9.972-12.487-13.633-20.652-.729-1.625-1.448-3.229-2.177-4.786-1.3-2.778-2.599-6.139-3.974-9.697-3.638-9.416-7.761-20.089-14.78-27.529-6.309-6.685-18.202-9.905-28.695-12.747-3.529-.955-6.86-1.857-9.057-2.668a9.99 9.99 0 00-5.746-.355c-5.107 1.197-8.293 2.516-10.659 4.412-.625.501-2.476 2.146-3.56 4.79-3.661-1.757-8.695-5.112-11.793-7.177l-.193-.129c1.044-4.178.099-7.531-.891-9.625-5.587-11.816-24.129-10.891-27.787-10.58-2.078.174-4.707.267-7.488.365-4.368.155-9.196.329-13.973.865l.246-.686c3.626-10.103 13.274-16.892 24.008-16.892h5.684c5.522 0 9.999-4.478 9.999-9.999 0-5.522-4.478-9.999-9.999-9.999h-5.684c-15.936 0-30.529 8.387-38.708 21.588l-14.915-20.893 14.674-35.569L244.787 60.5a10.004 10.004 0 004.511-3.203l28.762-36.079c73.494 6.991 142.674 48.197 182.316 116.859a233.354 233.354 0 0123.563 57.236l-4.239 3.78a26.708 26.708 0 00-8.899 19.429 9.57 9.57 0 01-.006.241l-6.906-18.992a24.964 24.964 0 00-4.503-7.724l-12.319-14.423a25.06 25.06 0 00-19.081-8.796h-15.079a14.46 14.46 0 00-12.77 7.649 14.46 14.46 0 00.72 14.868l1.526 2.291c-9.744 8.379-21.014 15.084-33.014 19.606L348.7 173.649v-8.833a9.994 9.994 0 00-3.095-7.232l-18.613-17.769a10.013 10.013 0 00-3.59-2.201l-16.756-5.888c-5.213-1.834-10.919.909-12.749 6.118-1.831 5.211.908 10.918 6.118 12.749l14.724 5.175 13.962 13.327v7.008c0 1.611.39 3.199 1.136 4.628l25.877 49.567a9.995 9.995 0 0012.323 4.754l7.535-2.778c17.505-6.456 33.73-16.841 46.922-30.031a9.998 9.998 0 001.249-12.617l-.532-.799h4.775a5.09 5.09 0 013.876 1.787l12.319 14.423c.397.465.704.991.914 1.568l13.595 37.383a10 10 0 0016.466 3.652l6.471-6.471c4.098-4.099 6.919-9.285 8.267-15.034 10.008 80.205-21.441 163.173-87.915 215.347-4.345 3.409-5.103 9.694-1.692 14.039 3.409 4.345 9.693 5.103 14.039 1.692 47.992-37.667 80.962-91.542 92.837-151.701 11.987-60.739 1.522-123.754-29.469-177.432zM47.283 282.747l41.233 31.351a9.99 9.99 0 004.135 1.854l24.852 4.856c3.172.62 5.818 2.496 7.453 5.284 1.635 2.787 1.979 6.012.973 9.083a30.91 30.91 0 00-.027 19.307l3.168 9.748c1.893 5.826-1.309 12.107-7.134 14l-9.937 3.229a9.997 9.997 0 00-6.73 7.628l-7.998 41.749c-17.583-16.093-33.021-35.113-45.552-56.818-15.289-26.477-24.841-54.718-29.051-83.274l24.615-7.997zm-26.11-42.267zm88.668-140.757c3.29 7.983 1.608 17.221-4.282 23.535l-11.763 12.603a10.041 10.041 0 00-1.367 1.853L65.717 184.35l-23.741 16.976a9.999 9.999 0 00-2.446 13.767l8.879 13.024c-5.118.762-9.711 1.39-12.765 1.723a160.453 160.453 0 00-1.836-1.724c-2.377-2.208-5.68-5.157-10.604-9.466 8.121-50.263 32.341-97.615 70.433-133.76 7.295 2.295 13.28 7.737 16.204 14.833zm99.618 75.034c3.029-.107 5.891-.209 8.447-.423 1.349-.113 2.847-.092 4.26.018a9.993 9.993 0 004.6 12.441c1.876 1.004 4.487 2.745 7.251 4.588 7.815 5.21 16.675 11.115 24.996 11.645 7.568.491 11.779-3.822 13.583-5.66.144-.146.28-.292.424-.425a10.713 10.713 0 002.676-3.277c1.599.457 3.279.912 5.001 1.379 5.921 1.603 16.941 4.587 19.377 7.167 4.325 4.585 7.696 13.312 10.671 21.011 1.503 3.891 2.923 7.563 4.516 10.968.684 1.461 1.357 2.966 2.041 4.49 4.614 10.292 9.844 21.958 20.939 29.21 5.031 3.289 11.198 4.234 16.64 5.069.658.101 1.412.217 2.178.343-3.23 4.506-7.829 8.788-12.688 13.313-12.379 11.528-27.785 25.876-20.69 48.765 3.349 10.808 3.505 11.976-1.88 17.834-.734.799-1.418 1.527-2.059 2.209-4.612 4.91-8.255 8.788-11.271 18.288-.876 2.759-2.011 4.037-4.072 6.357-1.648 1.856-3.701 4.168-5.595 7.408-2.268 3.882-3.018 7.62-3.619 10.623-.593 2.955-.929 4.438-2.089 5.863-2.641 3.242-7.567 7.95-12.624 11.163-4.7 2.984-7.444 3.392-8.379 3.336-1.067-1.144-4.932-6.152-10.772-23.486-1.44-4.276-3.438-8.676-5.37-12.931-4.259-9.38-8.662-19.08-6.52-25.709.253-.782.503-1.546.749-2.293 3.422-10.43 6.652-20.279.668-34.619-1.822-4.367-4.723-7.558-7.28-10.374-1.655-1.821-3.53-3.885-3.819-5.073-.352-1.449-.341-3.122-.328-5.059.034-5.225.086-13.12-7.763-20.47-11.066-10.358-23.97-7.167-32.51-5.055-2.623.648-5.101 1.262-7.297 1.52-14.048 1.646-26.59-3.654-34.42-14.55-8.191-11.397-9.38-26.734-3.102-40.024 3.039-6.431 7.63-11.598 12.946-17.578 1.161-1.307 2.333-2.625 3.505-3.975 1.95-2.248 4.096-5.292 6.365-8.515 2.711-3.848 7.755-11.007 9.945-12.369 4.459-2.508 14.811-2.875 22.369-3.143z"/><path d="M374.048 422.722c10.2-1.667 17.868-12.277 24.134-33.393l11.762-39.642c.522-1.762.55-3.634.078-5.41l-4.811-18.134a10 10 0 00-8.478-7.364 10.015 10.015 0 00-9.976 5.161c-1.096 2.02-2.083 4.16-3.037 6.229-1.605 3.481-3.265 7.081-4.992 9.068-.97 1.116-3.462 2.319-5.87 3.481-5.757 2.778-13.642 6.583-16.654 16.185-1.87 5.956-1.172 10.668-.662 14.108.441 2.983.543 4.017-.256 5.893l-.1.233c-3.183 7.469-9.105 21.374-.801 33.195 5.925 8.436 12.155 10.605 16.996 10.605.946.003 1.84-.08 2.667-.215zm-3.299-21.883c-1.911-2.722.945-9.426 2.835-13.863l.101-.234c3.048-7.154 2.233-12.648 1.64-16.66-.381-2.569-.517-3.673-.04-5.19.392-1.247 2.735-2.457 6.265-4.161 1.565-.756 3.288-1.587 5.027-2.593l-7.566 25.502c-3.194 10.766-6.02 15.792-7.651 18.02-.189-.238-.393-.51-.611-.821zM269.355 118.624c-5.207-1.824-10.917.915-12.745 6.126-1.828 5.212.915 10.917 6.126 12.745l.674.236a9.982 9.982 0 003.31.566c4.128 0 7.992-2.577 9.436-6.692 1.828-5.212-.915-10.917-6.126-12.745l-.675-.236z"/></svg>