<svg height="512pt" viewBox="0 0 512.067 512" width="512pt" xmlns="http://www.w3.org/2000/svg"><path d="M502.559 278.328a46.736 46.736 0 01-35.5 36.266 47.622 47.622 0 01-27.391-1.961c-1.52-.598-3-1.281-4.438-2.051v154.625a17.872 17.872 0 01-31.32 11.777 18.187 18.187 0 00-13.48-6.058 18.05 18.05 0 00-13.485 6.058l-3.07 3.5-14.762 16.895c-3.394 3.902-8.312 6.14-13.484 6.14s-10.09-2.238-13.48-6.14l-3.586-4.098-14.25-16.297a17.986 17.986 0 00-26.965 0l-3.586 4.094-14.25 16.3a17.87 17.87 0 01-26.965 0l-3.586-4.097-14.25-16.297a17.984 17.984 0 00-26.965 0l-3.582 4.094-14.254 16.3a17.855 17.855 0 01-13.48 6.142 17.87 17.87 0 01-13.485-6.141l-3.582-4.098-14.25-16.297a17.986 17.986 0 00-26.965 0 17.69 17.69 0 01-13.226 6.145 18.095 18.095 0 01-16.215-9.899 17.397 17.397 0 01-1.879-8.023V310.582A46.682 46.682 0 0145 314.594a23.48 23.48 0 01-2.305-.598 38.28 38.28 0 01-4.437-1.363 46.995 46.995 0 01.172-87.469 25.289 25.289 0 014.265-1.45 45.479 45.479 0 0112.801-1.792 46.083 46.083 0 0121.332 5.207V191.8c-.605-93.297 69.328-171.996 162.05-182.36 4.778-.511 9.556-.765 14.419-.851a179.2 179.2 0 01181.933 179.2v39.339a64.505 64.505 0 014.266-1.965 46.937 46.937 0 0163.063 53.164zm0 0" fill="#607d8b"/><path d="M468.426 278.328a47.164 47.164 0 01-28.758 34.305c-1.453.543-2.934 1-4.438 1.363a23.48 23.48 0 01-2.304.598 46.682 46.682 0 01-31.828-4.012v154.625a17.446 17.446 0 01-1.88 8.023 17.772 17.772 0 00-8.788-2.304 18.05 18.05 0 00-13.485 6.058l-3.07 3.5a17.31 17.31 0 01-4.098-3.5 18.021 18.021 0 00-13.48-6.058 18.023 18.023 0 00-13.485 6.058l-14.25 16.297-14.25-16.297a17.986 17.986 0 00-26.964 0l-3.586 4.094-3.582-4.094a17.986 17.986 0 00-26.965 0l-14.254 16.297-14.25-16.297a17.984 17.984 0 00-26.965 0l-3.582 4.094-3.586-4.094a17.984 17.984 0 00-26.965 0l-14.25 16.297-14.25-16.297a17.986 17.986 0 00-26.965 0 17.31 17.31 0 01-4.097 3.5l-3.07-3.5a17.916 17.916 0 00-22.274-3.754 17.397 17.397 0 01-1.879-8.023V310.582A46.682 46.682 0 0145 314.594a23.48 23.48 0 01-2.305-.598v-3.414a41.865 41.865 0 01-4.437 2.05 46.995 46.995 0 01.172-87.469 64.506 64.506 0 014.265 1.966v-3.414a45.479 45.479 0 0112.801-1.793 46.083 46.083 0 0121.332 5.207V191.8c-.605-93.297 69.328-171.996 162.05-182.36 91.985 8.7 162.25 85.954 162.22 178.348v39.34a46.083 46.083 0 0121.332-5.207c4.328-.016 8.64.59 12.8 1.793 1.461.355 2.891.84 4.266 1.45 21.336 8.273 33.57 30.753 28.93 53.163zm0 0" fill="#cfd8dc"/><g fill="#6a1b9a"><path d="M145.098 179.445v25.41c-.118 9.31 7.336 16.95 16.648 17.067h68.899a8.533 8.533 0 006.55-13.817c-10.718-14.359-34.535-35.035-83.625-37.195a8.364 8.364 0 00-6.043 2.473 8.356 8.356 0 00-2.43 6.062zm0 0M366.96 179.445v25.41c.118 9.31-7.335 16.95-16.647 17.067h-68.895a8.524 8.524 0 01-7.563-4.875 8.533 8.533 0 011.008-8.942c10.719-14.359 34.535-35.035 83.625-37.195a8.364 8.364 0 016.043 2.473 8.356 8.356 0 012.43 6.062zm0 0M288.457 341.39l-32.426 42.665-32.43-42.664-32.425 42.664C134.465 358.457 158.75 264.59 158.75 264.59l32.426 42.664 32.426-42.664 32.43 42.664 32.425-42.664 32.426 42.664 32.426-42.664s24.312 93.867-32.426 119.465zm0 0"/></g><path d="M85.422 489.93a26.225 26.225 0 0029.168-7.332 9.566 9.566 0 0114.078 0l17.922 20.43a26.452 26.452 0 0039.765 0l17.918-20.438a9.575 9.575 0 017.043-3.09 9.573 9.573 0 017.04 3.09l17.917 20.43a26.459 26.459 0 0039.766 0l17.879-20.438a9.566 9.566 0 0114.078 0l17.879 20.43a26.459 26.459 0 0039.766 0l17.875-20.438a9.566 9.566 0 0114.082 0 26.45 26.45 0 0029.03 7.117 26.449 26.449 0 0017.134-24.492V322.83c22.312 5.308 45.593-3.665 58.57-22.575 12.98-18.91 12.98-43.86 0-62.77-12.977-18.914-36.258-27.886-58.57-22.578V187.79a187.726 187.726 0 00-56-133.777A187.722 187.722 0 00253.145.055C151.223 1.609 68.297 87.625 68.297 191.825v23.081a55.347 55.347 0 00-55.637 18.692c-15.152 18.386-16.867 44.398-4.262 64.617 12.61 20.215 36.72 30.125 59.899 24.613V465.2a26.205 26.205 0 0017.125 24.73zM46.859 306.3a38.39 38.39 0 01-27.75-25.066 38.395 38.395 0 016.727-36.785c11.566-13.699 31.004-17.719 47.059-9.726a8.535 8.535 0 0012.468-7.594v-35.305c0-94.922 75.383-173.285 168.04-174.703a170.684 170.684 0 01122.382 49.05 170.661 170.661 0 0150.91 121.618v39.34c0 2.98 1.559 5.742 4.106 7.289s5.719 1.652 8.363.277c16.059-7.996 35.504-3.965 47.059 9.754 11.578 14.031 11.707 34.262.308 48.434-11.394 14.176-31.18 18.398-47.367 10.105a8.545 8.545 0 00-8.375.285 8.54 8.54 0 00-4.094 7.309v154.617a9.385 9.385 0 01-16.383 6.152 26.459 26.459 0 00-39.765 0l-17.922 20.481a9.54 9.54 0 01-7.035 3.094 9.54 9.54 0 01-7.035-3.094l-17.875-20.48a26.459 26.459 0 00-39.766 0l-17.922 20.48a9.542 9.542 0 01-14.07 0L231 471.352a26.452 26.452 0 00-39.766 0l-17.918 20.48a9.547 9.547 0 01-14.07 0l-17.922-20.48a26.459 26.459 0 00-39.765 0 9.386 9.386 0 01-16.195-6.152V310.581a8.54 8.54 0 00-4.094-7.309 8.545 8.545 0 00-8.375-.285 38.07 38.07 0 01-26.036 3.313zm0 0"/><path d="M161.746 230.457h68.887a16.75 16.75 0 0015.02-9.312 17.231 17.231 0 00-1.622-18.141c-12.902-17.29-38.996-38.399-90.05-40.629a16.05 16.05 0 00-12.11 4.602 17.331 17.331 0 00-5.309 12.468v25.41c-.097 14.016 11.165 25.47 25.184 25.602zm-8.117-51.012c44.101 2.047 66.066 19.48 77.004 33.946h-68.887c-4.594-.13-8.223-3.942-8.117-8.536zm0 0M281.426 230.457h68.886c14.02-.133 25.282-11.586 25.184-25.602v-25.41a17.331 17.331 0 00-5.309-12.468 16.304 16.304 0 00-12.109-4.602c-51.055 2.254-77.148 23.34-90.05 40.629a17.231 17.231 0 00-1.622 18.14 16.75 16.75 0 0015.02 9.313zm76.96-51.203a.222.222 0 01.044.148v25.453c.105 4.594-3.524 8.407-8.118 8.536l-68.613-.18c10.7-14.328 32.758-31.82 76.73-33.914zm0 0M229.574 258.668a6.65 6.65 0 00-.765-.855 5.783 5.783 0 00-.496-.239 8.528 8.528 0 00-1.579-.765 8.44 8.44 0 00-1.468-.496 13.894 13.894 0 00-3.223 0 7.644 7.644 0 00-1.52.511 7.982 7.982 0 00-1.539.742c-.16.11-.347.13-.5.247a7.61 7.61 0 00-.77.855c-.3.23-.585.484-.85.758l-25.602 33.722-25.602-33.722a8.53 8.53 0 00-15.05 3.031c-1.067 4.113-25.395 101.145 37.152 129.383a8.536 8.536 0 0010.308-2.621l25.602-33.723 25.598 33.723a8.835 8.835 0 0013.585 0l25.602-33.723 25.598 33.723c.05.058.12.078.172.136a8.354 8.354 0 002.652 2.176c.21.11.422.207.64.29a8.496 8.496 0 003.364.769 8.4 8.4 0 003.07-.668c.129-.05.25 0 .367-.074 62.551-28.239 38.223-125.27 37.157-129.383a7.425 7.425 0 00-.47-.973 8.018 8.018 0 00-.769-1.57 7.41 7.41 0 00-1.152-1.317 7.182 7.182 0 00-.656-.843c-.137-.102-.301-.117-.446-.211a7.546 7.546 0 00-1.629-.785 8.27 8.27 0 00-1.406-.504 8.448 8.448 0 00-1.633-.086c-.57-.031-1.14 0-1.707.094a3.56 3.56 0 00-.5 0c-.347.136-.68.296-1 .484-.539.195-1.05.441-1.535.742-.48.336-.922.727-1.316 1.164-.29.211-.559.45-.809.707l-25.601 33.723-25.598-33.723a8.847 8.847 0 00-.855-.77 7.82 7.82 0 00-.758-.85 4.814 4.814 0 00-.496-.24 8.258 8.258 0 00-1.586-.769 8.817 8.817 0 00-1.461-.496 13.928 13.928 0 00-3.227 0c-.52.121-1.031.29-1.515.512a8.664 8.664 0 00-1.547.742c-.153.113-.34.129-.496.25a6.886 6.886 0 00-.766.852c-.3.234-.586.488-.855.761l-25.598 33.723-25.66-33.613a8.3 8.3 0 00-.856-.801zm26.457 57.121a8.53 8.53 0 006.824-3.414l25.602-33.723 25.598 33.723a8.536 8.536 0 006.797 3.375 8.536 8.536 0 006.796-3.375l20.668-27.21c3.286 25.241 4.172 69.425-25.093 87.89L295.23 336.27a8.29 8.29 0 00-.851-.762 8.365 8.365 0 00-.77-.852c-.152-.12-.34-.136-.496-.238a7.838 7.838 0 00-1.578-.762 5.884 5.884 0 00-3.105-.593 7.785 7.785 0 00-1.594.093c-.52.117-1.023.29-1.504.512a8.081 8.081 0 00-1.55.742c-.157.11-.344.125-.497.246a6.918 6.918 0 00-.77.852 8.29 8.29 0 00-.85.762l-25.602 33.722-25.633-33.722a8.843 8.843 0 00-13.594 0l-28.016 36.878c-29.183-18.386-28.304-62.625-25.043-87.89l20.649 27.195a8.536 8.536 0 006.797 3.375 8.536 8.536 0 006.797-3.375l25.601-33.723 25.598 33.723a8.546 8.546 0 006.812 3.336zm0 0"/></svg>